<mxfile host="app.diagrams.net" modified="2024-02-08T11:49:07.436Z" agent="Mozilla/5.0 (Windows NT 10.0; Win64; x64) AppleWebKit/537.36 (KHTML, like Gecko) Chrome/121.0.0.0 Safari/537.36" version="23.1.2" etag="P5aByleOzXBR2VXLQ__d" type="github">
  <diagram name="1 oldal" id="wi1e7h2Y_j63OCvFK-YW">
    <mxGraphModel>
      <root>
        <mxCell id="0" />
        <mxCell id="1" parent="0" />
      </root>
    </mxGraphModel>
  </diagram>
</mxfile>
